# xmcd CD database file
#
# Track frame offsets:
#	150
#	17603
#	44867
#	60588
#	84731
#	100320
#	114342
#	129320
#	144836
#	163772
#	188925
#	205601
#
# Disc length: 3047 seconds
#
# Revision: 0
# Processed by: cddbd v1.5.2PL0 Copyright (c) Steve Scherf et al.
# Submitted via: jetAudio 7
#
DISCID=a00be50c
DTITLE=David Kramer - Huistoe
DYEAR=2004
DGENRE=folk
TTITLE0=Weeskind
TTITLE1=Kairo
TTITLE2=Onnerwater
TTITLE3=Dans Mettie Dood
TTITLE4=Die Pad
TTITLE5=Katie
TTITLE6=Donnerweer Brom
TTITLE7=Dikwiel Bicycle
TTITLE8=Klipspringer
TTITLE9=Bitterswaar
TTITLE10=Stoomtrein
TTITLE11=Ek Kô Huistoe
EXTD=
EXTT0=
EXTT1=
EXTT2=
EXTT3=
EXTT4=
EXTT5=
EXTT6=
EXTT7=
EXTT8=
EXTT9=
EXTT10=
EXTT11=
PLAYORDER=
